<svg data-name="Layer 1" xmlns="http://www.w3.org/2000/svg" viewBox="0 0 249.88 68.95"><path d="M54.87 0h-1.55c-11 .12-16.78 4.7-18 13.47l-.73 5.69c-.46 3.92.24 6.86 2.13 9 2.35 2.63 6.45 4.53 12.68 4.6h1.55c10.78-.11 16.53-4.56 17.89-12.72l.08-.59.72-5.68c.48-4.07-.23-7.11-2.18-9.3C65.11 1.83 61.02.07 54.85.01m5.07 18.91A11.24 11.24 0 0158 24.31a7.69 7.69 0 01-6.37 2.83h-1.7c-2.89 0-5-1-5.86-2.65a9.52 9.52 0 01-.45-5.32l.68-5.18a10.2 10.2 0 012.71-6.24 8.12 8.12 0 015.87-2h1.58c1.68 0 3.89.28 5.13 1.92 1 1.36 1.36 3.36 1 6.11zM143.64 0h-1.55c-11 .12-16.78 4.7-18 13.47l-.73 5.69c-.46 3.92.24 6.86 2.13 9 2.35 2.63 6.45 4.53 12.68 4.6h1.55c10.78-.11 16.52-4.56 17.88-12.72l.07-.59.72-5.68c.48-4.07-.23-7.11-2.18-9.3-2.35-2.64-6.44-4.4-12.61-4.46m5.07 18.91a11.31 11.31 0 01-1.93 5.39 7.69 7.69 0 01-6.36 2.83h-1.69c-2.9 0-5-1-5.87-2.65a9.6 9.6 0 01-.45-5.32l.68-5.18a10.18 10.18 0 012.71-6.24 8.13 8.13 0 015.88-2h1.58c1.68 0 3.9.28 5.13 1.92 1 1.36 1.35 3.36 1 6.11zm89.94-14.45C236.26 1.83 232.17.07 226 .01h-1.54c-11 .12-16.78 4.7-18 13.47l-.73 5.69c-.47 3.92.23 6.86 2.13 9 2.34 2.63 6.44 4.53 12.68 4.6h1.54c10.78-.11 16.53-4.56 17.89-12.72l.08-.59.73-5.68c.48-4.07-.23-7.11-2.18-9.3m-7.54 14.45a11.26 11.26 0 01-1.93 5.39 7.68 7.68 0 01-6.37 2.83h-1.69c-2.89 0-5-1-5.86-2.65a9.58 9.58 0 01-.45-5.32l.69-5.18a10.2 10.2 0 012.71-6.24 8.15 8.15 0 015.88-2h1.58c1.67 0 3.89.28 5.13 1.92 1 1.36 1.35 3.36 1 6.11zm-59.6-9.27a4.74 4.74 0 01.87.08 3.7 3.7 0 012.13 1.15 4.31 4.31 0 011 3.38l-1.16 9.52-.35 2.49v.16h5.31a12.66 12.66 0 001.32-.08c2.36-.25 6.25-1.22 7.36-4.29l.09-.26a15.69 15.69 0 00.56-2.62l.45-3.33.22-1.55a14.38 14.38 0 00.07-3.53c-.36-3.07-4-4-6.31-4.29a11.67 11.67 0 00-1.3-.08h-9.38a5 5 0 01-2.53-.64 4.81 4.81 0 01-1.74-4.06v-1h14c7 .06 11.59 1.47 14.12 4.31 1.91 2.14 2.61 5 2.16 8.82l-.26 2-.36 3.11c-.05.41-.12 1.15-.2 1.55a15.2 15.2 0 01-1.73 5.17 11.16 11.16 0 01-3.72 3.87 13.32 13.32 0 01-1.64.87 18.54 18.54 0 01-4.15 1.32c-.47.09-1.23.17-2.17.25-1.09.09-2.41.13-3.76.15h-10.81c-2.35-.06-3.73-.47-4.49-1.32a2.37 2.37 0 01-.35-.52 3.18 3.18 0 01-.26-1.83l1.16-8.79 1.23-10h4.62zM29.02 26.41H16.46a16.05 16.05 0 01-4.11-.45 4.58 4.58 0 01-2.38-1.38 3.89 3.89 0 01-.81-1.72v-.19a7.44 7.44 0 01-.12-.94A14 14 0 019.15 19l.63-4.8a14.92 14.92 0 01.3-1.59l.14-.52v-.1a10 10 0 01.39-1.15c0-.09.07-.18.11-.27a8.63 8.63 0 01.46-.85 6.07 6.07 0 01.51-.69 6.82 6.82 0 013-1.93 14.88 14.88 0 014.92-.67h7a6 6 0 002.7-.64 5.43 5.43 0 001.68-1.64c.07-.11.13-.24.19-.35a8.69 8.69 0 00.88-2.09l.28-1h-14a31.55 31.55 0 00-4.33.34c-7.81 1.17-12 5.43-13 12.65l-.7 5.49c-.45 3.78.23 6.61 2.06 8.67 2.12 2.38 5.75 4 11.15 4.3h9.49a8.58 8.58 0 003.09-.5 5.6 5.6 0 002-2.19c.12-.23.24-.46.35-.71a12.3 12.3 0 00.57-2.35zm56.44.72v.39a5.46 5.46 0 01-1.82 3.38 5 5 0 01-3.3 1.23h-4.69l.43-3.58.18-1.42L79.46.7h3.84c2.45 0 4.1.64 4.91 1.89l8.51 13.59 12.1-13.73c1.05-1.17 2.79-1.76 5.16-1.76h4l-3.28 26.43v.38a5.49 5.49 0 01-1.82 3.39 5 5 0 01-3.3 1.23h-4.52l2.27-18.34-9.52 12a3.38 3.38 0 01-2.23 1.32h-.12a2.82 2.82 0 01-2-1.46l-6.28-11.92-1.72 13.41m-71.4 32.58a4.32 4.32 0 01-1.85 3.5 7.55 7.55 0 01-4.63 1.33 7 7 0 01-5.56-2.32 9.45 9.45 0 01-2-6.41 9.71 9.71 0 012-6.52 6.91 6.91 0 015.56-2.37 7.71 7.71 0 014.72 1.31 4.18 4.18 0 011.75 3.52h-2.38a2.47 2.47 0 00-1.07-2.08 4.55 4.55 0 00-2.79-.79 4.89 4.89 0 00-4 1.75 7.59 7.59 0 00-1.42 4.92 8.53 8.53 0 001.4 5.23 4.64 4.64 0 003.94 1.85 4.55 4.55 0 002.74-.77 3 3 0 001.23-2.14h2.38zm2.78-7.32h2.18v1.2a4 4 0 013.3-1.54h.59v2h-.44a3.24 3.24 0 00-2.63 1 4.86 4.86 0 00-.81 3.13v6h-2.18V52.39zm14.03 12.15a5.27 5.27 0 01-4.09-1.61 6.35 6.35 0 01-1.48-4.45 7 7 0 011.48-4.71 5.11 5.11 0 014.08-1.71 4.85 4.85 0 013.83 1.49 6.28 6.28 0 011.32 4.32v.79h-8.43a6.1 6.1 0 00.77 3.06 2.73 2.73 0 002.46 1.19 2.87 2.87 0 002-.66 2.77 2.77 0 00.91-1.82h2.24a4.49 4.49 0 01-1.54 3.06 5.41 5.41 0 01-3.55 1.05zm2.92-7.51a4.52 4.52 0 00-.67-2.38 2.82 2.82 0 00-2.43-1 2.71 2.71 0 00-2.32 1.12 4.43 4.43 0 00-.77 2.22h6.19zm8.88 7.51a4.74 4.74 0 01-3.18-1 3.64 3.64 0 01.43-5.65 7.68 7.68 0 014.34-1.06h2v-1a2 2 0 00-.65-1.65 3.32 3.32 0 00-2.09-.52 2.45 2.45 0 00-1.58.48 1.8 1.8 0 00-.67 1.32h-2.28a3.31 3.31 0 011.27-2.6 5.89 5.89 0 013.45-.82 5.32 5.32 0 013.43 1 3.36 3.36 0 011.3 2.75v4.11c0 1.12 0 2.06.09 2.81a4.67 4.67 0 00.23 1.43h-2.1a1.78 1.78 0 01-.2-.79 10.09 10.09 0 01-.09-1 4.89 4.89 0 01-.49.73 3.94 3.94 0 01-3.21 1.46zm3.56-6.08h-2a5.12 5.12 0 00-2.77.6 2 2 0 00-.92 1.8 1.86 1.86 0 00.65 1.51 2.82 2.82 0 001.84.54 3 3 0 002.39-.9 3.92 3.92 0 00.8-2.66v-.89zm11.68 5.91a12.41 12.41 0 01-2.14.17 3.24 3.24 0 01-2.08-.67 2 2 0 01-.85-1.65v-8.26h-2.45v-1.57h2.45v-2.11l2.17-.9v3h2.9v1.57h-2.9v7.75a1.17 1.17 0 00.32.91 1.44 1.44 0 001 .28 9 9 0 001.59-.16v1.62zm2.7-17.09H63v2.22h-2.39v-2.22zm.1 5.14h2.18v11.81h-2.18V52.39zm6.37-.03h2v1.63a4 4 0 01.37-.47 4.65 4.65 0 013.63-1.5 4.35 4.35 0 013.43 1.24 5.72 5.72 0 011.09 3.87v7h-2.14v-7a4.07 4.07 0 00-.69-2.63 2.69 2.69 0 00-2.19-.82 3.21 3.21 0 00-2.53.89 4.3 4.3 0 00-.79 2.88v6.68h-2.18V52.39zm19.13 14.89a3.18 3.18 0 002.52-.86 4.6 4.6 0 00.74-2.95V61.9l-.36.5a4.28 4.28 0 01-3.47 1.6 4.42 4.42 0 01-3.62-1.61 6.82 6.82 0 01-1.32-4.45 6.24 6.24 0 011.46-4.26 4.76 4.76 0 013.74-1.66 4 4 0 013.39 1.6l.17.26v-1.49h2.18v11.12a5.62 5.62 0 01-1.32 4.14 5.71 5.71 0 01-4.16 1.31 5.82 5.82 0 01-3.65-.93 3.5 3.5 0 01-1.16-2.91h2.27a2.08 2.08 0 00.62 1.67 3 3 0 001.97.49zm0-13.65a2.78 2.78 0 00-2.38 1.14 5.24 5.24 0 00-.85 3.2 5.67 5.67 0 00.79 3.33 3.15 3.15 0 004.82-.05 6.6 6.6 0 000-6.47 2.8 2.8 0 00-2.35-1.12zm21.73-4.46h-5.68v-1.89h13.69v1.92h-5.69v15h-2.32v-15zm10.69 3.22h2.17v1.2a4 4 0 013.31-1.54h.59v2h-.44a3.23 3.23 0 00-2.63 1 4.85 4.85 0 00-.82 3.13v6h-2.17V52.39zm11.08 7.07a4.08 4.08 0 00.69 2.63 2.71 2.71 0 002.19.82 3.27 3.27 0 002.61-.91 4.11 4.11 0 00.69-2.92V52.4h2.17v11.81h-2v-1.54l-.24.31a4.58 4.58 0 01-3.63 1.56 4.46 4.46 0 01-3.53-1.26 5.87 5.87 0 01-1.13-4v-6.91h2.18v7.07zm18.89-3.89a1.66 1.66 0 00-.63-1.38 2.71 2.71 0 00-1.75-.51 3.28 3.28 0 00-1.79.42 1.34 1.34 0 00-.63 1.18 1.25 1.25 0 00.35.91 2.21 2.21 0 001.06.55l2.41.65a6.12 6.12 0 012.64 1.29 2.7 2.7 0 01.79 2 3.35 3.35 0 01-1.3 2.79 5.72 5.72 0 01-3.6 1 5.8 5.8 0 01-3.66-1 3.46 3.46 0 01-1.26-2.89h2.23a2 2 0 00.71 1.65 3 3 0 002 .6 3.46 3.46 0 002-.52 1.7 1.7 0 00.72-1.46 1.2 1.2 0 00-.45-.94 3.57 3.57 0 00-1.37-.63l-2.4-.65a5 5 0 01-2.35-1.19 2.79 2.79 0 01-.71-2 3 3 0 011.22-2.52 6.69 6.69 0 016.79 0 3.08 3.08 0 011.23 2.58h-2.25zm12.39 8.8a12.41 12.41 0 01-2.14.17 3.25 3.25 0 01-2.08-.67 2 2 0 01-.85-1.65v-8.26h-2.46v-1.57h2.45v-2.11l2.17-.9v3h2.9v1.57h-2.9v7.75a1.16 1.16 0 00.31.91 1.45 1.45 0 001 .28 9.06 9.06 0 001.59-.16v1.62zm12.34-2.2a9.75 9.75 0 01-2-6.55 9.38 9.38 0 012-6.39 7.88 7.88 0 0111.16 0 9.41 9.41 0 012 6.39 9.79 9.79 0 01-2 6.55 7.75 7.75 0 01-11.16 0zm9.47-1.37a8.37 8.37 0 001.38-5.15 8.05 8.05 0 00-1.38-5 5.15 5.15 0 00-7.8 0 8 8 0 00-1.38 5A8.36 8.36 0 00175 60.8a5.09 5.09 0 007.8 0zm6.66-8.41h2v1.63a3.68 3.68 0 01.37-.47 4.65 4.65 0 013.63-1.5 4.35 4.35 0 013.42 1.24 5.72 5.72 0 011.09 3.87v7h-2.17v-7a4.09 4.09 0 00-.68-2.63 2.7 2.7 0 00-2.19-.82 3.21 3.21 0 00-2.53.89 4.3 4.3 0 00-.79 2.88v6.68h-2.15V52.39zm14.24-5.11h2.17v17h-2.17v-17zm6.37 0h2.39v2.22h-2.39v-2.22zm.11 5.14h2.18v11.81h-2.18V52.39zm6.36-.03h2v1.63a3.66 3.66 0 01.37-.47 4.64 4.64 0 013.63-1.5 4.35 4.35 0 013.43 1.24 5.74 5.74 0 011.09 3.87v7h-2.17v-7a4.08 4.08 0 00-.69-2.63 2.69 2.69 0 00-2.19-.82 3.21 3.21 0 00-2.53.89 4.3 4.3 0 00-.79 2.88v6.68h-2.18V52.39zm19.2 12.15a5.27 5.27 0 01-4.08-1.61 6.34 6.34 0 01-1.48-4.45 7 7 0 011.48-4.71 5.1 5.1 0 014.08-1.71 4.86 4.86 0 013.83 1.49 6.28 6.28 0 011.32 4.32v.79h-8.43a6.05 6.05 0 00.77 3.06 2.73 2.73 0 002.46 1.19 2.88 2.88 0 002-.66 2.78 2.78 0 00.91-1.82h2.24a4.48 4.48 0 01-1.54 3.06 5.4 5.4 0 01-3.56 1.05zm2.92-7.51a4.52 4.52 0 00-.67-2.38 2.82 2.82 0 00-2.43-1 2.7 2.7 0 00-2.31 1.12 4.38 4.38 0 00-.77 2.22h6.19zm7.89-7.87a3.29 3.29 0 11-3.39 3.28 3.31 3.31 0 013.37-3.28zm0 .66a2.62 2.62 0 000 5.23 2.51 2.51 0 002.5-2.62 2.53 2.53 0 00-2.52-2.62zm-.5 4.32h-.76v-3.26a6.28 6.28 0 011.26-.12 1.84 1.84 0 011.14.26.89.89 0 01.32.7.84.84 0 01-.68.78.94.94 0 01.6.8 2 2 0 00.24.8h-.82a2.69 2.69 0 01-.26-.78.58.58 0 00-.68-.52h-.36v1.3zm0-1.84h.36c.42 0 .76-.14.76-.48s-.22-.5-.7-.5a1.9 1.9 0 00-.42 0v.96z" fill="#7d7d7d"/></svg>