<svg id="BBB_logo_artwork" data-name="BBB logo artwork" xmlns="http://www.w3.org/2000/svg" viewBox="0 0 128.57 193.92"><defs><style>.cls-1{fill:#7d7d7d}</style></defs><path class="cls-1" d="M242.35 440.42h17.36a50.2 50.2 0 017.69.43 11.29 11.29 0 014.53 1.79 11.15 11.15 0 013.33 3.63 9.84 9.84 0 011.33 5.08 10.3 10.3 0 01-6.1 9.42 11.44 11.44 0 016.1 3.94 10.46 10.46 0 012.13 6.55 12.91 12.91 0 01-1.38 5.76 11.61 11.61 0 01-3.76 4.47 12.43 12.43 0 01-5.88 2.06q-2.19.24-10.58.3h-14.77v-43.43zm8.77 7.23v10h5.75q5.13 0 6.37-.15a5.8 5.8 0 003.54-1.56 4.59 4.59 0 001.29-3.39 4.77 4.77 0 00-1.11-3.27 5 5 0 00-3.3-1.53q-1.3-.15-7.5-.15h-5zm0 17.28v11.62h8.12a39.68 39.68 0 006-.27 5.43 5.43 0 003.19-1.73 5.34 5.34 0 001.23-3.69 5.67 5.67 0 00-.95-3.32 5.37 5.37 0 00-2.74-2q-1.79-.62-7.78-.62h-7.08zm33.36-24.51h17.36a50.19 50.19 0 017.69.43 11.28 11.28 0 014.53 1.79 11.15 11.15 0 013.33 3.63 9.83 9.83 0 011.33 5.08 10.3 10.3 0 01-6.1 9.42 11.43 11.43 0 016.1 3.94 10.46 10.46 0 012.13 6.55 12.92 12.92 0 01-1.38 5.76 11.61 11.61 0 01-3.76 4.47 12.43 12.43 0 01-5.88 2.06q-2.19.24-10.58.3h-14.77v-43.43zm8.77 7.23v10H299q5.13 0 6.37-.15a5.8 5.8 0 003.54-1.56 4.59 4.59 0 001.29-3.39 4.77 4.77 0 00-1.11-3.27 5 5 0 00-3.3-1.53q-1.3-.15-7.5-.15h-5zm0 17.28v11.62h8.12a39.67 39.67 0 006-.27 5.43 5.43 0 003.19-1.73 5.33 5.33 0 001.23-3.69 5.67 5.67 0 00-.95-3.32 5.37 5.37 0 00-2.74-2q-1.79-.62-7.78-.62h-7.08zm32.55-24.51h17.36a50.21 50.21 0 017.69.43 11.27 11.27 0 014.53 1.79 11.14 11.14 0 013.33 3.63 9.84 9.84 0 011.33 5.08 10.3 10.3 0 01-6.1 9.42 11.43 11.43 0 016.1 3.94 10.46 10.46 0 012.13 6.55 12.92 12.92 0 01-1.38 5.76 11.62 11.62 0 01-3.79 4.48 12.43 12.43 0 01-5.88 2.06q-2.19.24-10.58.3H325.8v-43.44zm8.77 7.23v10h5.75q5.12 0 6.37-.15a5.8 5.8 0 003.54-1.56 4.59 4.59 0 001.29-3.39 4.77 4.77 0 00-1.11-3.27 5 5 0 00-3.3-1.53q-1.3-.15-7.5-.15h-5zm0 17.28v11.62h8.12a39.69 39.69 0 006-.27 5.43 5.43 0 003.19-1.73 5.33 5.33 0 001.23-3.69 5.67 5.67 0 00-.95-3.32 5.36 5.36 0 00-2.74-2q-1.79-.62-7.78-.62h-7.08zm27.3 17.33l.91-.09a1.12 1.12 0 00.33.68 1 1 0 00.68.22 1 1 0 00.68-.19.57.57 0 00.23-.45.42.42 0 00-.1-.28.77.77 0 00-.34-.2l-.75-.2a2.56 2.56 0 01-1.06-.46 1.22 1.22 0 01-.23-1.6 1.26 1.26 0 01.58-.47 2.32 2.32 0 01.91-.16 2 2 0 011.32.38 1.36 1.36 0 01.46 1h-.94a.8.8 0 00-.26-.52 1 1 0 00-.6-.16 1.07 1.07 0 00-.64.17.34.34 0 00-.15.29.36.36 0 00.14.28 2.48 2.48 0 00.86.31 4.56 4.56 0 011 .33 1.31 1.31 0 01.51.47 1.46 1.46 0 010 1.49 1.33 1.33 0 01-.63.52 2.64 2.64 0 01-1 .17 2 2 0 01-1.36-.41 1.78 1.78 0 01-.55-1.12zm4.56 1.51v-4.65h1.41l.84 3.17.83-3.17h1.41v4.65H370v-3.66l-.92 3.66h-.9l-.92-3.66v3.66h-.87z" transform="translate(-242.35 -289.93)"/><path class="cls-1" d="M96.59 121.63H22.74L19.95 130h19.67l4.06 12.31h31.97L79.71 130h19.67l-2.79-8.37z"/><path class="cls-1" d="M302.72 289.93c-.4 2.65-1.06 9.53 5 13.76 5.43 3.78 16.11 11.32 28.18 20.51 12.92 9.83 6.81 27.3 2 33.34-1.65 2.07-17.46 23.28-17.46 23.28s4.45-12-2.23-17.36l-28.72-22.06c-7.28-5.82-9.26-20.77-2.38-31.09 5.1-7.65 15.61-20.38 15.61-20.38zm-15.28 58.64a8.51 8.51 0 003.79 9.21l20.57 16.15c3.91 3.41 5 12.23 1.4 17.54-3 4.39-11.63 15.34-11.63 15.34a8.56 8.56 0 00-3.61-8.92L278 382.35c-3.81-3.41-7.22-9.82-1.7-19 2.97-4.99 11.14-14.78 11.14-14.78z" transform="translate(-242.35 -289.93)"/></svg>