<svg width="200" height="27" viewBox="0 0 200 27" fill="none" xmlns="http://www.w3.org/2000/svg">
<path d="M58.6143 24.4563C57.563 24.694 56.4909 24.828 55.4135 24.8564C53.2129 24.8564 52.0126 24.0562 51.4125 22.3558H51.3124C50.5291 23.1858 49.5829 23.8452 48.533 24.2927C47.4831 24.7402 46.3522 24.9662 45.2109 24.9564C41.9101 24.9564 39.8096 22.7559 39.8096 20.0552C39.8096 16.7544 42.4102 13.4536 50.9123 12.8534V11.6531C50.9156 11.3631 50.8558 11.0759 50.7371 10.8113C50.6183 10.5468 50.4435 10.3112 50.2247 10.1209C50.0058 9.93058 49.7482 9.79014 49.4697 9.70929C49.1912 9.62843 48.8985 9.60909 48.6118 9.65261C46.0482 9.8378 43.572 10.6632 41.41 12.0532L41.0099 7.90218C43.9478 6.17015 47.302 5.27109 50.7123 5.30153C54.4132 5.30153 57.1139 7.00195 57.1139 10.8029C57.1139 11.6031 57.0139 17.8046 57.0139 18.3048C57.0139 19.7051 57.614 20.3053 59.0144 20.4053L58.6143 24.4563ZM51.0124 15.9042C46.8113 16.3043 45.611 17.7046 45.611 18.9049C45.611 20.1052 46.6113 20.8054 48.0116 20.8054C49.0789 20.7966 50.1077 20.4063 50.9123 19.7051V15.9042H51.0124Z" fill="white"/>
<path d="M28.3071 5.30127C21.7054 5.30127 17.5044 9.30227 17.5044 15.4038C17.5044 20.6051 21.4054 24.8061 27.5069 24.8061C34.1085 24.8061 38.3096 20.8051 38.3096 14.7036C38.2095 9.4523 34.4086 5.30127 28.3071 5.30127Z" fill="#19E68C"/>
<path d="M80.5202 12.0031V17.8046L74.1186 23.0059V13.7036C74.1186 11.303 73.0183 10.1027 71.0178 10.1027C70.0433 10.1212 69.0857 10.3606 68.2171 10.8028V24.4562H61.9155V5.90163L68.1171 5.45151L68.017 8.45226H68.2171C68.9436 7.46274 69.8923 6.65761 70.9868 6.10167C72.0813 5.54574 73.2911 5.25452 74.5187 5.25146C77.7195 5.30148 80.5202 7.30198 80.5202 12.0031Z" fill="white"/>
<path d="M6.40159 0V9.90246L0 15.2038V0H6.40159Z" fill="white"/>
<path d="M16.6041 19.205V24.5063H0V20.4053L6.40159 15.104V19.205H16.6041Z" fill="white"/>
<path d="M29.1072 20.2054V21.5057H26.7066V20.4554C25.5265 20.3969 24.385 20.0164 23.4058 19.3552L23.9059 16.7545C24.9747 17.4615 26.2254 17.8436 27.5068 17.8548C27.9069 17.8548 28.307 17.6547 28.307 17.3547C28.307 16.3544 23.7058 16.3544 23.7058 13.2536C23.7058 11.6532 25.0062 10.553 26.7066 10.1529V8.85254H29.1072V9.95281C30.0859 10.024 31.0393 10.2964 31.9079 10.753L31.5078 13.2536C30.4565 12.8304 29.3395 12.5935 28.207 12.5535C27.8069 12.5535 27.5068 12.7535 27.5068 12.9536C27.5068 13.9538 32.208 13.9538 32.208 17.0546C32.0989 17.8435 31.7383 18.5762 31.1797 19.1438C30.6211 19.7114 29.8942 20.0837 29.1072 20.2054V20.2054Z" fill="#080808"/>
<path d="M130.832 11.8031C129.687 11.2027 128.423 10.8613 127.131 10.8028C126.128 10.8097 125.15 11.1239 124.331 11.7031V24.4562H117.929V5.50152L124.031 5.00139L123.731 9.00239H123.931C124.931 6.50177 126.931 4.90137 129.132 4.90137C130.023 4.90306 130.905 5.07273 131.733 5.40149L130.832 11.8031Z" fill="white"/>
<path d="M151.638 16.0041H139.035C139.235 18.6048 141.336 20.3052 144.536 20.3052C146.823 20.296 149.09 19.8898 151.238 19.1049L150.938 23.2059C148.283 24.3296 145.418 24.8752 142.536 24.8063C136.434 24.8063 132.733 21.1054 132.733 15.404C132.733 9.30246 136.834 4.90137 143.036 4.90137C149.238 4.90137 151.738 8.90236 151.738 13.1034C151.808 14.0711 151.775 15.0436 151.638 16.0041V16.0041ZM142.736 8.70231C140.635 8.70231 139.335 10.6028 139.135 12.7033H146.037C145.937 10.5028 144.836 8.70231 142.736 8.70231Z" fill="white"/>
<path d="M172.743 16.0041H160.139C160.34 18.6048 162.44 20.3052 165.641 20.3052C167.927 20.296 170.195 19.8898 172.342 19.1049L172.042 23.2059C169.387 24.3296 166.523 24.8752 163.64 24.8063C157.539 24.8063 153.838 21.1054 153.838 15.404C153.838 9.30246 157.939 4.90137 164.24 4.90137C170.342 4.90137 172.943 8.90236 172.943 13.1034C172.933 14.0734 172.866 15.042 172.743 16.0041V16.0041ZM163.84 8.70231C161.74 8.70231 160.44 10.6028 160.239 12.7033H167.141C167.041 10.5028 165.941 8.70231 163.84 8.70231V8.70231Z" fill="white"/>
<path d="M189.247 19.305V23.606C187.124 24.488 184.844 24.9304 182.546 24.9064C178.945 24.9064 176.544 22.8058 176.544 19.2049V9.60254H174.644V7.00189L182.946 0.200195V5.30147H188.947V9.50251H182.946V16.8043C182.946 18.9049 184.146 19.7051 185.946 19.7051C187.061 19.7585 188.177 19.6232 189.247 19.305V19.305Z" fill="white"/>
<path d="M196.249 24.8061C195.254 24.8061 194.3 24.4109 193.597 23.7074C192.893 23.004 192.498 22.0499 192.498 21.0551C192.498 20.0603 192.893 19.1063 193.597 18.4028C194.3 17.6994 195.254 17.3042 196.249 17.3042C197.244 17.3042 198.198 17.6994 198.901 18.4028C199.605 19.1063 200 20.0603 200 21.0551C200 22.0499 199.605 23.004 198.901 23.7074C198.198 24.4109 197.244 24.8061 196.249 24.8061Z" fill="#19E68C"/>
<path d="M115.129 19.305V23.606C113.006 24.488 110.726 24.9304 108.427 24.9064C104.826 24.9064 102.425 22.8058 102.425 19.2049V9.60254H100.525V7.00189L108.827 0.200195V5.30147H114.828V9.50251H108.827V16.8043C108.827 18.9049 110.027 19.7051 111.828 19.7051C112.943 19.7585 114.059 19.6232 115.129 19.305V19.305Z" fill="white"/>
<path d="M95.7241 5.30147L84.9214 14.2037C84.2361 13.2803 83.8836 12.1522 83.9212 11.0029C83.9212 7.00189 87.6221 4.90137 92.2232 4.90137C93.3998 4.93008 94.5714 5.06398 95.7241 5.30147V5.30147Z" fill="white"/>
<path d="M99.0249 18.4542C99.0249 22.5552 95.424 24.8558 90.4227 24.8558C88.0467 24.9073 85.6891 24.4289 83.521 23.4554L83.9211 20.3547L84.9213 19.4545C86.6086 20.1346 88.4041 20.5072 90.2227 20.5547C91.623 20.5547 92.5232 20.0546 92.5232 19.2544C92.5232 18.0541 90.4227 17.654 88.3222 16.7538L93.3234 12.5527C95.9241 13.453 99.0249 14.8033 99.0249 18.4542Z" fill="white"/>
</svg>
